<svg xmlns="http://www.w3.org/2000/svg" viewBox="0 0 96 96" role="img" aria-labelledby="title desc">
  <title id="title">Veyra Yol Yardım Logo</title>
  <desc id="desc">Kaktüs yeşili çekici ve yol yardım işareti</desc>
  <rect width="96" height="96" rx="20" fill="#0b3b25"/>
  <circle cx="72" cy="24" r="10" fill="#bef264"/>
  <path fill="#34d399" d="M28 69c-5 0-9-4-9-9V42c0-5 4-9 9-9s9 4 9 9v18c0 5-4 9-9 9Z"/>
  <path fill="#86efac" d="M37 49h5c3 0 5-2 5-5v-8h-8v8c0 1-1 2-2 2v3ZM19 51h-5c-3 0-5-2-5-5v-8h8v8c0 1 1 2 2 2v3Z"/>
  <path fill="#f4ecd9" d="M38 58h32l8 11H38z"/>
  <path fill="#f4ecd9" d="M45 42h21l9 15H36l5-11c1-3 2-4 4-4Z"/>
  <path fill="#0b3b25" d="M50 47h12l4 6H47z"/>
  <path fill="#bef264" d="M24 73h48v6H24z"/>
  <circle cx="46" cy="70" r="7" fill="#07140d"/>
  <circle cx="68" cy="70" r="7" fill="#07140d"/>
  <circle cx="46" cy="70" r="3" fill="#bef264"/>
  <circle cx="68" cy="70" r="3" fill="#bef264"/>
  <path fill="#bef264" d="M21 23h8v8h-8zM29 15h8v8h-8zM37 23h8v8h-8z"/>
</svg>
