<svg xmlns="http://www.w3.org/2000/svg" viewBox="0 0 64 64" role="img" aria-label="WhatsApp">
  <circle cx="32" cy="32" r="30" fill="#25d366"/>
  <path fill="#fff" d="M47.2 16.6A21.1 21.1 0 0 0 14.1 42l-2.7 9.9 10.1-2.7a21 21 0 0 0 10.1 2.6h.1a21.1 21.1 0 0 0 15.5-35.2Zm-15.5 31.7h-.1a17.5 17.5 0 0 1-8.9-2.4l-.6-.4-6 1.6 1.6-5.8-.4-.6a17.6 17.6 0 1 1 14.4 7.6Zm9.6-13.2c-.5-.3-3.1-1.5-3.6-1.7s-.8-.3-1.2.3c-.3.5-1.4 1.7-1.7 2.1-.3.3-.6.4-1.1.1-.5-.2-2.2-.8-4.2-2.6a15.5 15.5 0 0 1-2.9-3.6c-.3-.5 0-.8.2-1.1l.8-.9c.2-.3.3-.5.5-.9.2-.3.1-.6-.1-.9l-1.6-3.8c-.4-.9-.8-.8-1.2-.8h-1c-.4 0-.9.1-1.4.6-.5.5-1.8 1.8-1.8 4.3s1.9 5 2.1 5.3c.3.3 3.7 5.7 8.9 8 1.2.5 2.2.8 3 1.1 1.3.4 2.4.3 3.3.2 1-.2 3.1-1.3 3.5-2.5.4-1.2.4-2.3.3-2.5-.2-.2-.5-.3-1-.6Z"/>
</svg>
